<?xml version="1.0" encoding="UTF-8"?><svg id="Layer_1" xmlns="http://www.w3.org/2000/svg" xmlns:xlink="http://www.w3.org/1999/xlink" viewBox="0 0 1211.91 196.33"><defs><style>.cls-1{fill:url(#linear-gradient);}.cls-2{fill:url(#linear-gradient-8);}.cls-3{fill:url(#linear-gradient-9);}.cls-4{fill:url(#linear-gradient-3);}.cls-5{fill:url(#linear-gradient-4);}.cls-6{fill:url(#linear-gradient-2);}.cls-7{fill:url(#linear-gradient-6);}.cls-8{fill:url(#linear-gradient-7);}.cls-9{fill:url(#linear-gradient-5);}.cls-10{fill:url(#linear-gradient-12);}.cls-11{fill:url(#linear-gradient-10);}.cls-12{fill:url(#linear-gradient-11);}</style><linearGradient id="linear-gradient" x1="0" y1="98.17" x2="101.65" y2="98.17" gradientUnits="userSpaceOnUse"><stop offset="0" stop-color="#fff47f"/><stop offset="1" stop-color="#aa7b00"/></linearGradient><linearGradient id="linear-gradient-2" x1="107.38" y1="98.17" x2="205.81" y2="98.17" xlink:href="#linear-gradient"/><linearGradient id="linear-gradient-3" x1="211.53" y1="98.17" x2="256.99" y2="98.17" xlink:href="#linear-gradient"/><linearGradient id="linear-gradient-4" x1="263.43" y1="98.17" x2="364.01" y2="98.17" xlink:href="#linear-gradient"/><linearGradient id="linear-gradient-5" x1="397.64" y1="98.17" x2="483.19" y2="98.17" xlink:href="#linear-gradient"/><linearGradient id="linear-gradient-6" x1="488.91" y1="98.17" x2="589.14" y2="98.17" xlink:href="#linear-gradient"/><linearGradient id="linear-gradient-7" x1="595.57" y1="98.17" x2="673.25" y2="98.17" xlink:href="#linear-gradient"/><linearGradient id="linear-gradient-8" x1="702.95" y1="98.17" x2="861.87" y2="98.17" xlink:href="#linear-gradient"/><linearGradient id="linear-gradient-9" x1="864.37" y1="98.17" x2="964.59" y2="98.17" xlink:href="#linear-gradient"/><linearGradient id="linear-gradient-10" x1="971.03" y1="98.17" x2="1048.7" y2="98.17" xlink:href="#linear-gradient"/><linearGradient id="linear-gradient-11" x1="1054.42" y1="98.17" x2="1132.1" y2="98.17" xlink:href="#linear-gradient"/><linearGradient id="linear-gradient-12" x1="1137.82" y1="98.17" x2="1211.91" y2="98.17" xlink:href="#linear-gradient"/></defs><path class="cls-1" d="M0,166.54v-50.51H44.38v48.18c0,3.11,1.07,5.18,4.65,5.18,3.94,0,5.01-2.07,5.01-5.44v-37.56c0-6.22-1.07-8.81-7.87-13.21l-23.27-14.5C7.52,89.36,1.07,78.74,1.07,64.23V30.04C1.07,12.17,14.32,0,46.53,0h10.38c32.57,0,42.95,11.91,42.95,27.46v42.48H56.2V29.01c0-2.85-1.43-4.14-4.65-4.14s-4.65,1.29-4.65,4.14V61.9c0,5.18,1.43,7.25,7.16,10.88l22.91,14.5c18.25,10.88,24.7,19.68,24.7,36.52v38.33c0,20.46-14.32,34.19-46.89,34.19h-10.38c-29.71,0-44.38-10.1-44.38-29.79Z"/><path class="cls-6" d="M152.48,114.74v79.77h-45.1V1.81h65.86c18.97,0,32.57,7.25,32.57,25.12v62.16c0,17.09-14.32,25.64-31.86,25.64h-21.48Zm0-26.16h3.22c3.94,0,5.37-1.29,5.37-4.92V31.6c0-3.11-.71-4.92-5.37-4.92h-3.22v61.9Z"/><path class="cls-4" d="M256.99,194.52h-45.46V1.81h45.46V194.52Z"/><path class="cls-5" d="M309.24,1.81l17.54,104.38-.36-104.38h37.58V194.52h-41.88l-21.12-115.52,.36,115.52h-37.94V1.81h45.82Z"/><path class="cls-9" d="M418.05,31.34h-20.4V1.81h85.55V31.34h-20.4V194.52h-44.74V31.34Z"/><path class="cls-7" d="M488.91,1.81h45.46V76.67h9.66V1.81h45.1V194.52h-45.1V110.6h-9.66v83.92h-45.46V1.81Z"/><path class="cls-8" d="M672.17,1.81V31.34h-32.22v46.88h27.2v30.56h-27.2v55.69h33.29v30.04h-77.67V1.81h76.6Z"/><path class="cls-2" d="M724.78,194.52L702.95,1.81h46.89l5.37,125.88,7.52-125.88h42.24l7.87,126.66,5.37-126.66h43.67l-21.83,192.7h-51.18l-5.73-109.82-6.09,109.82h-52.26Z"/><path class="cls-3" d="M864.37,1.81h45.46V76.67h9.66V1.81h45.1V194.52h-45.1V110.6h-9.66v83.92h-45.46V1.81Z"/><path class="cls-11" d="M1047.63,1.81V31.34h-32.22v46.88h27.2v30.56h-27.2v55.69h33.29v30.04h-77.67V1.81h76.6Z"/><path class="cls-12" d="M1131.02,1.81V31.34h-32.21v46.88h27.2v30.56h-27.2v55.69h33.29v30.04h-77.67V1.81h76.6Z"/><path class="cls-10" d="M1182.92,1.81l.36,162.14h28.64l-.36,30.56h-73.73V1.81h45.1Z"/></svg>